<svg id="Ebene_1" data-name="Ebene 1" xmlns="http://www.w3.org/2000/svg" viewBox="0 0 201.38 20.27"><defs><style>.cls-1{fill:#fff;}</style></defs><title>claim</title><path class="cls-1" d="M201.33.17a.34.34,0,0,0-.47-.12L184.37,10l0,0c-1.37.8-4.49,2.71-5.9,2.71-.4,0-.3-.44-.2-.74L180,7c.26-.77.06-1.07-.34-1.07-.64,0-2,1.29-4.62,4.65l1.66-3.78a.35.35,0,1,0-.64-.28L175.38,8c-4.57,2.83-8.83,4.72-10.42,4.72-.52,0-.86-.18-.86-.9a6.25,6.25,0,0,1,1.1-3c.39-.58,1.57-2,2.16-1.71,0,.76-.93,2.09-2.26,3.06a.35.35,0,0,0-.08.48.34.34,0,0,0,.49.08c1.54-1.13,2.55-2.58,2.55-3.62,0-.66-.42-.77-.7-.77A3.48,3.48,0,0,0,164.94,8a89.22,89.22,0,0,0-9.55,5.27L157,8.92a4.67,4.67,0,0,0,.79-2,.62.62,0,0,0-.59-.67c-.53,0-1.42.71-2.31,1.67h0c-4.56,2.84-8.82,4.73-10.41,4.73-.53,0-.87-.18-.87-.9a6.17,6.17,0,0,1,1.11-3c.38-.58,1.57-2,2.15-1.71,0,.76-.93,2.09-2.25,3.06a.35.35,0,0,0-.08.48.33.33,0,0,0,.48.08c1.55-1.13,2.55-2.58,2.55-3.62,0-.66-.42-.77-.7-.77a3.48,3.48,0,0,0-2.4,1.63,40.44,40.44,0,0,1-5.76,1.13,1.31,1.31,0,0,1-1.47-1.23A4.51,4.51,0,0,1,137.68,6a.35.35,0,0,0-.64-.3c-1.29,2.56-3.4,5.93-4.5,6.88a.25.25,0,0,1,0-.12,22,22,0,0,1,1.66-5.71.36.36,0,0,0-.16-.46.34.34,0,0,0-.48.16,27.48,27.48,0,0,1-4.12,6.13.25.25,0,0,1,0-.12,21.65,21.65,0,0,1,1.67-5.71.34.34,0,0,0-.16-.46.37.37,0,0,0-.49.18c-.19.41-.39.92-.58,1.46-4.56,2.83-8.81,4.71-10.39,4.71-.53,0-.87-.18-.87-.9a6.17,6.17,0,0,1,1.11-3l.18-.26a.26.26,0,0,0,.11-.14c.52-.65,1.38-1.52,1.86-1.31,0,.76-.93,2.09-2.25,3.06a.35.35,0,0,0-.08.48.33.33,0,0,0,.48.08c1.55-1.13,2.55-2.58,2.55-3.62,0-.66-.42-.77-.7-.77A3.56,3.56,0,0,0,119.4,8a16.39,16.39,0,0,1-5.18,1.22,3.19,3.19,0,0,1-2.73-1.55.36.36,0,0,0-.67.18,7.23,7.23,0,0,1-.36,2.28c-.52,1.26-1.83,2.57-2.49,2.57-.16,0-.43-.1-.43-.82a6.89,6.89,0,0,1,.47-2.2l.42-1.16c.06,0,.86-.77,2-2a26.3,26.3,0,0,0,3.7-5c.52-.93-.12-1.11-.52-1.11A3.86,3.86,0,0,0,110.94,2a32.49,32.49,0,0,0-3,6c-4.54,2.81-8.78,4.69-10.36,4.69-.52,0-.86-.18-.86-.9a6.25,6.25,0,0,1,1.1-3c.39-.58,1.57-2,2.16-1.71,0,.76-.93,2.09-2.26,3.06a.35.35,0,0,0-.08.48.33.33,0,0,0,.48.08c1.55-1.13,2.56-2.58,2.56-3.62,0-.66-.42-.77-.7-.77A3.54,3.54,0,0,0,97.49,8c-4.49,2.79-8.57,4.71-10,4.71-.18,0-.26-.14-.26-.3a1.17,1.17,0,0,1,.1-.4l2.31-5.19a.34.34,0,0,0-.18-.46.34.34,0,0,0-.46.18L88.36,8c-3.82,2.39-8,4.72-9.3,4.72-.25,0-.35-.16-.35-.48a25.19,25.19,0,0,1,1.83-5.41L83.12.94a.47.47,0,0,0,0-.15A.34.34,0,0,0,82.8.45a.32.32,0,0,0-.32.2L79.9,6.51c-1.11,2.53-4,5.91-5,6.15,0-1,1.87-3.84,3.78-5.77a.32.32,0,0,0,.1-.22.37.37,0,0,0-.36-.37.33.33,0,0,0-.22.11c-.48.47-1,1-1.41,1.54h0c-4.57,2.84-8.83,4.73-10.42,4.73-.52,0-.87-.18-.87-.9a6.27,6.27,0,0,1,1.11-3c.38-.58,1.57-2,2.15-1.71,0,.76-.92,2.09-2.25,3.06a.35.35,0,0,0-.08.48.33.33,0,0,0,.48.08c1.55-1.13,2.56-2.58,2.56-3.62,0-.66-.43-.77-.71-.77A3.54,3.54,0,0,0,66.31,8c-4.52,2.81-8.67,4.71-10.11,4.71-.37,0-.29-.44-.16-.7l3.37-7.61c1.21-.12,2.6-.2,4.21-.2A.34.34,0,0,0,64,3.81a.33.33,0,0,0-.34-.34c-1.47,0-2.74.06-3.88.16L60.94.94a.35.35,0,0,0-.18-.47.34.34,0,0,0-.46.18L58.93,3.73a23,23,0,0,0-3,.56A.35.35,0,0,0,56,5c1.09.31,1.76.93,1.05,3a41.52,41.52,0,0,1-6.11,1.12A1.47,1.47,0,0,1,49.4,7.69,7.42,7.42,0,0,1,50.15,5,.35.35,0,0,0,50,4.54a.34.34,0,0,0-.48.12l-3.58,5.65,1.37-3.54a.32.32,0,0,0-.2-.44.33.33,0,0,0-.44.2L46.12,8A15.28,15.28,0,0,1,41,9.2a3.09,3.09,0,0,1-2.7-1.55.33.33,0,0,0-.3-.16.34.34,0,0,0-.36.34,7.35,7.35,0,0,1-.36,2.28c-.34.92-1.63,2.57-2.42,2.57-.22,0-.26-.46-.26-.66A9.48,9.48,0,0,1,37,6.87a.33.33,0,0,0,0-.48.35.35,0,0,0-.51,0,14.88,14.88,0,0,0-1.07,1.49,41,41,0,0,1-5.8,1.14,1.31,1.31,0,0,1-1.47-1.23A4.51,4.51,0,0,1,28.55,6a.35.35,0,0,0-.64-.3c-1.29,2.56-3.4,5.93-4.5,6.88a.25.25,0,0,1,0-.12,22,22,0,0,1,1.66-5.71.35.35,0,0,0-.16-.46.34.34,0,0,0-.48.16,27.48,27.48,0,0,1-4.12,6.13.25.25,0,0,1,0-.12,21.65,21.65,0,0,1,1.67-5.71.34.34,0,0,0-.16-.46.35.35,0,0,0-.42.09L.17,18.75a.34.34,0,0,0-.12.47.32.32,0,0,0,.29.17.39.39,0,0,0,.18,0L20.89,7.49a20,20,0,0,0-1.33,5c0,.36.17.88.63.88.74,0,2-1.77,3.16-3.74a9.76,9.76,0,0,0-.67,2.86c0,.36.16.88.63.88.8,0,2.73-2.73,4.18-5.49a1.91,1.91,0,0,0,2.09,1.87,31.64,31.64,0,0,0,5.3-1,7.33,7.33,0,0,0-1,3.25c0,.6.24,1.36,1,1.36,1.25,0,2.68-2,3.06-3a5.44,5.44,0,0,0,.32-1.73A3.55,3.55,0,0,0,41,9.9a16.24,16.24,0,0,0,4.81-1.06l-1.62,4.22a.35.35,0,0,0,.63.3l4-6.27a3.55,3.55,0,0,0-.08.6,2.2,2.2,0,0,0,2.21,2.07,33.23,33.23,0,0,0,5.79-1l-1.31,2.95c-.44,1,.12,1.69.81,1.69,1.54,0,5.37-1.75,9.28-4.08a5.78,5.78,0,0,0-.7,2.48,1.47,1.47,0,0,0,1.57,1.6c1.5,0,5-1.38,9.29-3.92a7,7,0,0,0-1.45,3.18.66.66,0,0,0,.64.74c.77,0,2.32-1.44,3.88-3.62A8.11,8.11,0,0,0,78,12.2a1,1,0,0,0,1,1.18c1.65,0,5.28-2.1,8.79-4.27l-1.16,2.58a1.77,1.77,0,0,0-.16.69,1,1,0,0,0,1,1c1.12,0,4.16-1.07,9.16-4.09a6,6,0,0,0-.7,2.49,1.48,1.48,0,0,0,1.57,1.6c1.58,0,5.33-1.52,10-4.32,0,.12-.08.24-.13.36a7.83,7.83,0,0,0-.52,2.44c0,.88.38,1.52,1.13,1.52,1.08,0,2.57-1.6,3.13-3a6,6,0,0,0,.37-1.61,3.86,3.86,0,0,0,2.75,1.12A15.53,15.53,0,0,0,118.76,9a6.3,6.3,0,0,0-.88,2.82,1.47,1.47,0,0,0,1.57,1.6c1.58,0,5.37-1.54,10-4.37a15.29,15.29,0,0,0-.79,3.49c0,.36.16.88.63.88.74,0,2-1.77,3.15-3.74a10,10,0,0,0-.66,2.86c0,.36.16.88.62.88.81,0,2.74-2.73,4.19-5.49a1.91,1.91,0,0,0,2.09,1.87,30.47,30.47,0,0,0,5.18-1,6.31,6.31,0,0,0-1,3,1.47,1.47,0,0,0,1.57,1.6c1.48,0,4.87-1.34,9.11-3.82a7.43,7.43,0,0,0-1.6,3.16.61.61,0,0,0,.61.66c.64,0,1.83-1.06,3-2.55l-1.18,3a33.15,33.15,0,0,0-3.28,2.51.75.75,0,0,0-.28.81,5.49,5.49,0,0,0,1.47,2,.54.54,0,0,0,.88-.23L155,14.33a75.83,75.83,0,0,1,9.2-5.21,6,6,0,0,0-.8,2.66,1.48,1.48,0,0,0,1.57,1.6c1.58,0,5.31-1.51,9.92-4.29L173.13,13a.34.34,0,0,0,.18.46.35.35,0,0,0,.42-.1c3-4,4.81-6.09,5.55-6.57l-1.73,4.88c-.38,1,.16,1.67.88,1.67,1.27,0,3.22-1.05,4.94-2.05h0l.8-.48.47-.27,0,0L201.21.64A.34.34,0,0,0,201.33.17ZM57,4.74c.54-.1,1-.2,1.63-.27L57.91,6.1A1.64,1.64,0,0,0,57,4.74Zm54.55-2.36a3.5,3.5,0,0,1,2-1.22,28.26,28.26,0,0,1-3.76,5l-.83.85A36.26,36.26,0,0,1,111.55,2.38ZM152.7,12.66c.2-1.43,3.18-5.13,4.4-5.63C156.94,8.34,154.07,12,152.7,12.66Zm0,5.85a4.9,4.9,0,0,1-1.09-1.43.17.17,0,0,1,.06-.18c.67-.6,1.47-1.22,2.36-1.87Z"/><path class="cls-1" d="M90.53,4a.28.28,0,0,1-.13,0,.32.32,0,0,1-.17-.42l.61-1.45a.33.33,0,0,1,.6.25l-.62,1.45A.32.32,0,0,1,90.53,4Z"/></svg>