<svg xmlns="http://www.w3.org/2000/svg" viewBox="0 0 163.93 15.48"><defs><style>.cls-1{fill:#fff;}</style></defs><title>claim-03</title><g id="Ebene_2" data-name="Ebene 2"><path class="cls-1" d="M56.88,7.8c-1.65.84-4.79,2.22-6,2.22-.43,0-.71-.14-.71-.74a5.12,5.12,0,0,1,.91-2.45c.31-.48,1.28-1.62,1.76-1.4A4.18,4.18,0,0,1,51,7.93a.3.3,0,0,0-.07.4.28.28,0,0,0,.4.06,4.5,4.5,0,0,0,2.09-3c0-.55-.35-.63-.58-.63a2.87,2.87,0,0,0-2,1.36c-3.7,2.3-7.1,3.86-8.28,3.86-.3,0-.24-.36-.14-.57l2.77-6.23a34.31,34.31,0,0,1,3.44-.16.28.28,0,0,0,.28-.3.27.27,0,0,0-.28-.28c-1.2,0-2.24,0-3.18.13l1-2.21A.27.27,0,0,0,46.27,0a.27.27,0,0,0-.37.14L44.78,2.69a20.84,20.84,0,0,0-2.46.46.28.28,0,0,0,0,.56c.89.26,1.44.77.86,2.43a34.11,34.11,0,0,1-5,.92A1.21,1.21,0,0,1,37,5.94a6.29,6.29,0,0,1,.61-2.23.29.29,0,0,0-.11-.36.31.31,0,0,0-.4.1L34.14,8.08l1.12-2.9a.27.27,0,0,0-.17-.36.29.29,0,0,0-.36.16l-.44,1.17a12.69,12.69,0,0,1-4.22,1,2.52,2.52,0,0,1-2.21-1.26.25.25,0,0,0-.24-.14.28.28,0,0,0-.3.28A5.77,5.77,0,0,1,27,7.91c-.27.76-1.33,2.11-2,2.11-.18,0-.22-.38-.22-.54a7.8,7.8,0,0,1,2-4.22.26.26,0,0,0,0-.39.29.29,0,0,0-.41,0l0,0-7,3.29A60.62,60.62,0,0,0,25.1.44.3.3,0,0,0,25,0a.29.29,0,0,0-.39.1,55.65,55.65,0,0,1-7.22,9.41,2.6,2.6,0,0,1-.61.46c-.06,0-.09-.15-.09-.4a22.53,22.53,0,0,1,1.66-5.9.27.27,0,0,0-.25-.39.3.3,0,0,0-.23.11,45.63,45.63,0,0,1-5.24,6.12A1.81,1.81,0,0,1,12,10a.32.32,0,0,1,0-.14C12,8.75,13.11,6,15.35,1.61a.13.13,0,0,0,0-.06.06.06,0,0,0,0,0,.25.25,0,0,0-.19-.31h-.09l0,0a.18.18,0,0,0-.1,0S.58,9.86.19,10.07s-.12.68.2.49l14-8.34c-2,3.9-3,6.65-3,7.65,0,.32.15.73.56.73A2,2,0,0,0,13,10a35.9,35.9,0,0,0,4.22-4.82,15.13,15.13,0,0,0-1.14,4.46c0,.38.1,1,.63,1a1.85,1.85,0,0,0,1.05-.66l.63-.65,7.24-3.43a7.17,7.17,0,0,0-1.4,3.62c0,.49.2,1.12.79,1.12,1,0,2.19-1.61,2.5-2.45a4.31,4.31,0,0,0,.27-1.42,2.88,2.88,0,0,0,2.25,1A12.93,12.93,0,0,0,34,6.87l-1.32,3.47a.28.28,0,0,0,.51.24l3.26-5.14a3.32,3.32,0,0,0-.07.5,1.81,1.81,0,0,0,1.82,1.69A27.87,27.87,0,0,0,43,6.8L41.88,9.22c-.37.84.1,1.38.66,1.38,1.26,0,4.4-1.44,7.6-3.35a4.78,4.78,0,0,0-.57,2,1.21,1.21,0,0,0,1.28,1.32c1.35,0,4.53-1.4,6.29-2.29a.31.31,0,0,0,.12-.4A.28.28,0,0,0,56.88,7.8ZM43.19,3.52c.45-.09.86-.17,1.34-.22l-.59,1.34A1.33,1.33,0,0,0,43.19,3.52Z"/><path class="cls-1" d="M87.67,7.8C86,8.64,82.88,10,81.64,10c-.42,0-.7-.14-.7-.74a5.09,5.09,0,0,1,.9-2.45c.31-.48,1.29-1.62,1.76-1.4a4.14,4.14,0,0,1-1.84,2.5.3.3,0,0,0-.07.4.28.28,0,0,0,.4.06,4.47,4.47,0,0,0,2.09-3c0-.55-.35-.63-.58-.63a2.89,2.89,0,0,0-2,1.36c-3.68,2.29-7,3.86-8.18,3.86a.22.22,0,0,1-.22-.24,1,1,0,0,1,.09-.33L75.19,5.2A.28.28,0,0,0,75,4.82a.28.28,0,0,0-.38.15l-.53,1.19C71,8.11,67.61,10,66.51,10c-.2,0-.28-.13-.28-.39a20.53,20.53,0,0,1,1.5-4.43L69.84.4a.23.23,0,0,0,0-.11A.28.28,0,0,0,69.57,0a.27.27,0,0,0-.26.16L67.2,5c-.9,2.07-3.31,4.84-4.1,5,0-.83,1.53-3.15,3.1-4.73a.27.27,0,0,0,.08-.18A.29.29,0,0,0,66,4.8a.33.33,0,0,0-.19.08c-1.64,1.62-3.27,4-3.27,5.11a.54.54,0,0,0,.52.61c.63,0,1.9-1.19,3.18-3a6.74,6.74,0,0,0-.58,2,.86.86,0,0,0,.86,1c1.35,0,4.33-1.73,7.2-3.51l-.94,2.13a1.39,1.39,0,0,0-.13.56.79.79,0,0,0,.79.82c.91,0,3.4-.88,7.5-3.35a4.78,4.78,0,0,0-.57,2,1.21,1.21,0,0,0,1.28,1.32c1.35,0,4.53-1.4,6.3-2.29a.3.3,0,0,0,.11-.4A.28.28,0,0,0,87.67,7.8Z"/><path class="cls-1" d="M163.89,4.59a.29.29,0,0,0-.39-.1l-5.44,3.26,0,0c-1.12.66-3.67,2.22-4.82,2.22v0h0c-.33,0-.25-.36-.16-.61l1.41-4c.22-.62.05-.87-.28-.87-.53,0-1.66,1-3.79,3.8l1.37-3.09a.28.28,0,0,0-.15-.38.28.28,0,0,0-.38.15l-.52,1.18c-3.74,2.33-7.23,3.87-8.53,3.87-.43,0-.71-.14-.71-.74a5,5,0,0,1,.91-2.45c.31-.48,1.28-1.62,1.76-1.4a4.17,4.17,0,0,1-1.85,2.5.3.3,0,0,0-.06.4.27.27,0,0,0,.39.06,4.47,4.47,0,0,0,2.09-3c0-.55-.34-.63-.57-.63a2.89,2.89,0,0,0-2,1.35,73.39,73.39,0,0,0-7.82,4.32l1.33-3.53a3.88,3.88,0,0,0,.65-1.61.51.51,0,0,0-.48-.54c-.44,0-1.17.57-1.9,1.36h0c-3.74,2.32-7.23,3.87-8.53,3.87-.43,0-.71-.14-.71-.74a5.09,5.09,0,0,1,.9-2.45c.32-.48,1.29-1.62,1.77-1.4a4.17,4.17,0,0,1-1.85,2.5.29.29,0,0,0-.06.4.27.27,0,0,0,.39.06,4.47,4.47,0,0,0,2.09-3c0-.55-.34-.63-.57-.63a2.87,2.87,0,0,0-2,1.33,32.56,32.56,0,0,1-4.72.93,1.08,1.08,0,0,1-1.2-1,3.71,3.71,0,0,1,.36-1.46.29.29,0,0,0-.15-.38.28.28,0,0,0-.37.13A25.27,25.27,0,0,1,115.57,10a.15.15,0,0,1,0-.09,17.67,17.67,0,0,1,1.37-4.68.3.3,0,0,0-.13-.38.3.3,0,0,0-.4.13A22.16,22.16,0,0,1,113,10a.28.28,0,0,1,0-.09,18,18,0,0,1,1.36-4.68.27.27,0,0,0-.13-.38.29.29,0,0,0-.39.15c-.16.34-.33.75-.49,1.2-3.73,2.31-7.21,3.85-8.51,3.85-.42,0-.7-.14-.7-.74a5.09,5.09,0,0,1,.9-2.45c.32-.48,1.29-1.62,1.77-1.4A4.17,4.17,0,0,1,105,7.93a.29.29,0,0,0-.06.4.27.27,0,0,0,.39.06,4.47,4.47,0,0,0,2.09-3c0-.55-.34-.63-.57-.63a2.9,2.9,0,0,0-2,1.37,13.35,13.35,0,0,1-4.24,1,2.63,2.63,0,0,1-2.24-1.26A.3.3,0,0,0,98,5.77a.31.31,0,0,0-.22.28,6,6,0,0,1-.29,1.86C97.06,9,96,10,95.44,10c-.13,0-.34-.08-.34-.67a5.79,5.79,0,0,1,.38-1.8l.34-1c.05,0,.71-.63,1.65-1.62a21.31,21.31,0,0,0,3-4.06c.43-.76-.1-.91-.43-.91a3.16,3.16,0,0,0-2.19,1.28A26.85,26.85,0,0,0,95,7.36a6.2,6.2,0,0,0-.43,2c0,.72.31,1.25.92,1.25.89,0,2.11-1.32,2.57-2.45a4.84,4.84,0,0,0,.3-1.32,3.18,3.18,0,0,0,2.26.92A12.87,12.87,0,0,0,104.29,7a5,5,0,0,0-.73,2.3,1.21,1.21,0,0,0,1.28,1.32c1.31,0,4.41-1.28,8.23-3.59a12.64,12.64,0,0,0-.65,2.87c0,.29.13.72.51.72.61,0,1.62-1.45,2.59-3.06A8,8,0,0,0,115,9.88c0,.29.14.72.51.72.66,0,2.25-2.24,3.43-4.5a1.56,1.56,0,0,0,1.71,1.53,25.92,25.92,0,0,0,4.25-.78,5.08,5.08,0,0,0-.81,2.43,1.21,1.21,0,0,0,1.29,1.32c1.21,0,4-1.1,7.46-3.13a6.06,6.06,0,0,0-1.31,2.59.5.5,0,0,0,.5.54c.53,0,1.5-.87,2.47-2.09l-1,2.49a25.36,25.36,0,0,0-2.69,2.05.64.64,0,0,0-.23.66,4.51,4.51,0,0,0,1.2,1.65.45.45,0,0,0,.73-.18L134,11.37a63.56,63.56,0,0,1,7.53-4.27,5,5,0,0,0-.65,2.18,1.21,1.21,0,0,0,1.29,1.32c1.28,0,4.35-1.25,8.12-3.53l-1.44,3.25a.29.29,0,0,0,.15.38.32.32,0,0,0,.35-.08c2.45-3.31,3.93-5,4.54-5.39l-1.41,4c-.32.86.13,1.37.72,1.37,1.06,0,2.69-.9,4.12-1.72h0l.07-.05.93-.54,0,0h0a0,0,0,0,0,0,0L163.79,5A.28.28,0,0,0,163.89,4.59Zm-65.52-3a2.86,2.86,0,0,1,1.67-1A22.92,22.92,0,0,1,97,4.72l-.68.69A31.5,31.5,0,0,1,98.37,1.59ZM132.08,10c.17-1.17,2.6-4.2,3.61-4.61C135.56,6.47,133.2,9.48,132.08,10Zm0,4.79a4.32,4.32,0,0,1-.89-1.17.14.14,0,0,1,.05-.15c.54-.49,1.2-1,1.92-1.53Z"/><path class="cls-1" d="M75.71,3.57A.25.25,0,0,0,76,3.4l.51-1.18a.28.28,0,0,0-.14-.35A.27.27,0,0,0,76,2l-.5,1.19a.25.25,0,0,0,.14.34A.19.19,0,0,0,75.71,3.57Z"/></g></svg>