<svg xmlns="http://www.w3.org/2000/svg" viewBox="0 0 67.91 68.2"><defs><style>.cls-1{fill:#d39b97;}</style></defs><title>decoration-sun-rose</title><g id="Ebene_2" data-name="Ebene 2"><path class="cls-1" d="M34.39,47.65A13.57,13.57,0,1,1,48,34.08,13.59,13.59,0,0,1,34.39,47.65Zm0-24.34A10.77,10.77,0,1,0,45.16,34.08,10.79,10.79,0,0,0,34.39,23.31Z"/><path class="cls-1" d="M58.88,58.56a1.39,1.39,0,0,1-1-.4l-8.34-8.35a1.4,1.4,0,1,1,2-2l8.35,8.35a1.39,1.39,0,0,1-1,2.38Zm-47.82,0a1.39,1.39,0,0,1-1-.4,1.41,1.41,0,0,1,0-2l8.34-8.35a1.4,1.4,0,0,1,2,2l-8.34,8.34A1.36,1.36,0,0,1,11.06,58.56ZM66.51,35.82H54.72a1.4,1.4,0,1,1,0-2.79H66.51a1.4,1.4,0,1,1,0,2.79ZM13.2,35.14H1.4a1.4,1.4,0,1,1,0-2.8H13.2a1.4,1.4,0,0,1,0,2.8Zm6.51-14.4a1.44,1.44,0,0,1-1-.41L10.39,12a1.4,1.4,0,0,1,2-2l8.34,8.34a1.4,1.4,0,0,1-1,2.39Zm30.51,0a1.4,1.4,0,0,1-1-2.39L57.58,10a1.4,1.4,0,0,1,2,2l-8.34,8.34A1.42,1.42,0,0,1,50.22,20.74ZM34.4,14.59A1.39,1.39,0,0,1,33,13.2V1.4a1.4,1.4,0,1,1,2.79,0V13.2A1.39,1.39,0,0,1,34.4,14.59Z"/><path class="cls-1" d="M34,68.2a1.4,1.4,0,0,1-1.4-1.4V55a1.4,1.4,0,0,1,2.79,0V66.8A1.4,1.4,0,0,1,34,68.2Z"/></g></svg>