<svg id="Ebene_1" data-name="Ebene 1" xmlns="http://www.w3.org/2000/svg" xmlns:xlink="http://www.w3.org/1999/xlink" viewBox="0 0 20.41 20.41"><defs><style>.cls-1{fill:none;}.cls-2{clip-path:url(#clip-path);}.cls-3{fill:#fff;}</style><clipPath id="clip-path"><rect class="cls-1" width="20.41" height="20.41"/></clipPath></defs><title>IG</title><g class="cls-2"><path class="cls-3" d="M0,17.66V2.75a.26.26,0,0,0,0-.1A3.19,3.19,0,0,1,3.18,0H17.27a3.17,3.17,0,0,1,3.14,3.14V17.23a3.17,3.17,0,0,1-2.31,3.06l-.44.12H2.75l-.08,0A3.14,3.14,0,0,1,.11,18.05c0-.13-.07-.26-.11-.39M10.2,1.59H3.33A1.62,1.62,0,0,0,1.59,3.32V17.09a1.61,1.61,0,0,0,1.72,1.73H17.08a1.63,1.63,0,0,0,1.74-1.75V3.36a2.69,2.69,0,0,0-.06-.57,1.61,1.61,0,0,0-1.68-1.2H10.2"/><path class="cls-3" d="M8.26,7.21V5.51a3.21,3.21,0,0,1,2.26-2.85,8.22,8.22,0,0,1,1.41-.1c.55,0,1.1,0,1.65,0a.66.66,0,0,1,.7.7V4.6a.62.62,0,0,1-.63.66c-.28,0-.55,0-.83,0a.91.91,0,0,0-.77.43,2.13,2.13,0,0,0-.27,1.4s.1.09.15.09h1.64a.63.63,0,0,1,.71.71V9.3a.64.64,0,0,1-.7.69H11.77v7a1.69,1.69,0,0,1,0,.23.61.61,0,0,1-.62.63c-.75,0-1.51,0-2.27,0a.61.61,0,0,1-.61-.66V10H6.88a.66.66,0,0,1-.75-.74V7.89a.63.63,0,0,1,.7-.68H8.26"/></g></svg>