<svg xmlns="http://www.w3.org/2000/svg" viewBox="0 0 116.58 68.4"><defs><style>.cls-1{fill:#575756;}</style></defs><title>Logo 2019-12-20-01</title><g id="Ebene_2" data-name="Ebene 2"><path class="cls-1" d="M57.21,51.5V29.14a.38.38,0,0,1,.38-.38.39.39,0,0,1,.39.38V49.87c8.88-7.41,15.51-14.55,19.72-21.25L79,26.36c6.12-11,3.68-17.53,1.68-20.42a12.54,12.54,0,0,0-12.13-5A13.13,13.13,0,0,0,58,10.21l-.37,1.12-.36-1.12A13.17,13.17,0,0,0,46.62.91a12.58,12.58,0,0,0-12.13,5C32.5,8.75,30,15.19,36,26.11l1.49,2.52A82.43,82.43,0,0,0,51,44.43a.39.39,0,0,1,0,.54.38.38,0,0,1-.55,0A83.44,83.44,0,0,1,36.83,29l-1.5-2.55c-6.16-11.29-3.56-18-1.47-21A13.34,13.34,0,0,1,46.73.15,13.8,13.8,0,0,1,57.59,9,13.79,13.79,0,0,1,68.48.15,13.3,13.3,0,0,1,81.35,5.5c2.1,3,4.68,9.85-1.64,21.24L78.36,29C74,36,67.1,43.34,57.84,51Z"/><path class="cls-1" d="M57.59,29.26a3.73,3.73,0,1,1,3.73-3.72A3.73,3.73,0,0,1,57.59,29.26Zm0-6.68a3,3,0,1,0,3,3A3,3,0,0,0,57.59,22.58Z"/><path class="cls-1" d="M64.32,32.26a.35.35,0,0,1-.27-.11l-2.3-2.29a.39.39,0,0,1,.55-.55l2.29,2.3a.38.38,0,0,1,0,.54A.36.36,0,0,1,64.32,32.26Zm-13.14,0a.35.35,0,0,1-.27-.11.38.38,0,0,1,0-.54l2.29-2.3a.38.38,0,0,1,.54,0,.39.39,0,0,1,0,.55l-2.29,2.29A.36.36,0,0,1,51.18,32.26ZM66.42,26H63.17a.38.38,0,0,1-.38-.38.39.39,0,0,1,.38-.39h3.25a.39.39,0,0,1,.38.39A.38.38,0,0,1,66.42,26Zm-14.65-.18H48.52a.39.39,0,0,1-.38-.39.38.38,0,0,1,.38-.38h3.25a.38.38,0,0,1,.38.38A.39.39,0,0,1,51.77,25.83Zm10.17-4a.39.39,0,0,1-.27-.11.39.39,0,0,1,0-.55L64,18.92a.38.38,0,1,1,.54.54l-2.29,2.3A.39.39,0,0,1,61.94,21.87Zm-8.38,0a.43.43,0,0,1-.28-.11L51,19.46a.38.38,0,0,1,0-.54.39.39,0,0,1,.55,0l2.29,2.29a.39.39,0,0,1,0,.55A.43.43,0,0,1,53.56,21.87Zm4-1.69a.38.38,0,0,1-.38-.38V16.55a.38.38,0,0,1,.76,0V19.8A.38.38,0,0,1,57.59,20.18Z"/><path class="cls-1" d="M0,58H1v4.49h5.7V58H7.6V68.14H6.65V63.3H1v4.84H0Z"/><path class="cls-1" d="M12.27,58H18.5v.86H13.22v3.63h5v.86h-5v4h5.51v.86H12.27Z"/><path class="cls-1" d="M22.68,58h3.23a5.13,5.13,0,0,1,.74.09,4.19,4.19,0,0,1,.82.23,2.32,2.32,0,0,1,1.3,1.22A2.56,2.56,0,0,1,29,60.63a2.64,2.64,0,0,1-.25,1.2,2.35,2.35,0,0,1-.64.78,2.57,2.57,0,0,1-.84.43,5.31,5.31,0,0,1-.88.21l3,4.89H28.27L25.4,63.3H23.63v4.84h-.95Zm.95,4.49h2a3.16,3.16,0,0,0,1.21-.19,1.91,1.91,0,0,0,.73-.46,1.45,1.45,0,0,0,.35-.59,1.7,1.7,0,0,0,0-1.15,1.45,1.45,0,0,0-.35-.59,1.91,1.91,0,0,0-.73-.46,3.16,3.16,0,0,0-1.21-.19h-2Z"/><path class="cls-1" d="M32,67.39l6-8.58H32.11V58h7.1v.77l-6,8.56h6.16v.86H32Z"/><path class="cls-1" d="M42.87,58h1.42L48,66.5,51.72,58h1.36V68.14h-.95v-9h0l-3.89,9h-.42l-3.94-9h0v9h-1Z"/><path class="cls-1" d="M57.21,58h.95V68.14h-.95Z"/><path class="cls-1" d="M64.66,58.81H61.17V58h7.92v.86H65.61v9.33h-1Z"/><path class="cls-1" d="M72.38,66.26a2.36,2.36,0,0,0,1,1,2.87,2.87,0,0,0,1.36.32,2.64,2.64,0,0,0,.89-.15,2.24,2.24,0,0,0,.73-.4,1.91,1.91,0,0,0,.49-.63,1.83,1.83,0,0,0,.18-.82,1.57,1.57,0,0,0-.23-.88,1.79,1.79,0,0,0-.59-.57,3.9,3.9,0,0,0-.85-.38l-1-.32c-.33-.11-.65-.23-1-.36a3.06,3.06,0,0,1-.84-.53,2.26,2.26,0,0,1-.6-.81,3.08,3.08,0,0,1-.22-1.21,2.59,2.59,0,0,1,.27-1.2,2.68,2.68,0,0,1,.72-.88,3.3,3.3,0,0,1,1-.53A4.28,4.28,0,0,1,75,57.69a4.15,4.15,0,0,1,1.55.29,3,3,0,0,1,1.23,1l-.82.59a2.41,2.41,0,0,0-.84-.76A2.6,2.6,0,0,0,75,58.55a3.17,3.17,0,0,0-.88.12,2.43,2.43,0,0,0-.72.36,1.71,1.71,0,0,0-.5.6,1.75,1.75,0,0,0-.19.85,1.62,1.62,0,0,0,.39,1.17,2.67,2.67,0,0,0,1,.65,10,10,0,0,0,1.27.42,6.19,6.19,0,0,1,1.27.48,2.73,2.73,0,0,1,1,.85A2.49,2.49,0,0,1,78,65.54a2.67,2.67,0,0,1-1,2.12,3,3,0,0,1-1,.55,3.66,3.66,0,0,1-1.19.19,4.93,4.93,0,0,1-1.86-.35,3.42,3.42,0,0,1-1.45-1.19Z"/><path class="cls-1" d="M81.53,58h6.24v.86H82.48v3.63h5v.86h-5v4H88v.86H81.53Z"/><path class="cls-1" d="M91.51,58h6.24v.86H92.46v3.63h5v.86h-5v4H98v.86H91.51Z"/><path class="cls-1" d="M101.49,58h1v9.33h4.75v.86h-5.7Z"/><path class="cls-1" d="M110.12,58h6.23v.86h-5.28v3.63h5v.86h-5v4h5.51v.86h-6.46Z"/></g></svg>