<svg id="Ebene_1" data-name="Ebene 1" xmlns="http://www.w3.org/2000/svg" viewBox="0 0 127.56 37.97"><defs><style>.cls-1{fill:#d0d0d0;}.cls-2{fill:#fff;}</style></defs><title>button</title><rect class="cls-1" width="127.56" height="37.97" rx="12"/><path class="cls-2" d="M38.94,16.38h-1.4V9H35V7.81h6.44V9H38.94Z"/><path class="cls-2" d="M50,16.38H45.18V7.81H50V9H46.58v2.34H49.8V12.5H46.58v2.69H50Z"/><path class="cls-2" d="M55.67,13v3.42h-1.4V7.81h2.42a4,4,0,0,1,2.46.62,2.24,2.24,0,0,1,.79,1.88,2.35,2.35,0,0,1-1.66,2.28l2.42,3.79H59.11l-2-3.42Zm0-1.17h1a2.21,2.21,0,0,0,1.41-.36,1.29,1.29,0,0,0,.44-1.08,1.17,1.17,0,0,0-.47-1A2.61,2.61,0,0,0,56.6,9h-.93Z"/><path class="cls-2" d="M68.05,16.38,65.56,9.22h0c.07,1.07.1,2.06.1,3v4.17H64.34V7.81h2l2.38,6.82h0l2.45-6.82h2v8.57H71.81V12.14c0-.43,0-1,0-1.66s0-1.1.05-1.25h-.05l-2.57,7.15Z"/><path class="cls-2" d="M77.82,16.38V7.81h1.4v8.57Z"/><path class="cls-2" d="M91,16.38H89.3L85.09,9.55h0l0,.38c.05.73.08,1.39.08,2v4.46H83.88V7.81h1.7l4.2,6.79h0c0-.09,0-.42,0-1s0-1,0-1.32V7.81H91Z"/><path class="cls-2" d="M16.9,22.21h1.45l-3,8.57H13.88l-3-8.57h1.44l1.79,5.33c.09.25.19.58.3,1s.17.7.2.89a10.37,10.37,0,0,1,.24-1c.1-.39.19-.68.25-.87Z"/><path class="cls-2" d="M26.73,30.78H21.88V22.21h4.85v1.18H23.29v2.34h3.22V26.9H23.29v2.69h3.44Z"/><path class="cls-2" d="M32.38,27.36v3.42H31V22.21H33.4a4,4,0,0,1,2.46.62,2.24,2.24,0,0,1,.79,1.88A2.35,2.35,0,0,1,35,27l2.42,3.79H35.82l-2-3.42Zm0-1.16h1a2.2,2.2,0,0,0,1.41-.37,1.29,1.29,0,0,0,.44-1.08,1.17,1.17,0,0,0-.47-1,2.61,2.61,0,0,0-1.43-.32h-.93Z"/><path class="cls-2" d="M45.9,30.78H41.05V22.21H45.9v1.18H42.45v2.34h3.23V26.9H42.45v2.69H45.9Z"/><path class="cls-2" d="M50.15,30.78V22.21h1.4v8.57Z"/><path class="cls-2" d="M63.35,30.78H61.63L57.42,24h-.05l0,.38c.06.73.08,1.39.08,2v4.46H56.21V22.21h1.7L62.11,29h0c0-.09,0-.41,0-1s0-1,0-1.32V22.21h1.28Z"/><path class="cls-2" d="M68,22.21h2.54a4.76,4.76,0,0,1,2.56.52,1.79,1.79,0,0,1,.79,1.63,1.94,1.94,0,0,1-.39,1.24,1.72,1.72,0,0,1-1.11.63v.06a2.25,2.25,0,0,1,1.33.67,2,2,0,0,1,.42,1.36,2.17,2.17,0,0,1-.81,1.8,3.42,3.42,0,0,1-2.24.66H68Zm1.4,3.54h1.35A2.27,2.27,0,0,0,72,25.47a1.06,1.06,0,0,0,.41-.94,1,1,0,0,0-.44-.88,2.72,2.72,0,0,0-1.39-.27H69.41Zm0,1.14V29.6H70.9a2.18,2.18,0,0,0,1.33-.34,1.26,1.26,0,0,0,.44-1.06,1.12,1.12,0,0,0-.45-1,2.4,2.4,0,0,0-1.39-.32Z"/><path class="cls-2" d="M83.65,30.78l-.86-2.38H79.52l-.84,2.38H77.2l3.21-8.6h1.52l3.2,8.6Zm-1.23-3.59-.8-2.33c-.06-.16-.14-.4-.24-.74s-.18-.58-.22-.74A12.72,12.72,0,0,1,80.7,25l-.77,2.23Z"/><path class="cls-2" d="M90.07,27.36v3.42h-1.4V22.21h2.42a4,4,0,0,1,2.45.62,2.25,2.25,0,0,1,.8,1.88A2.36,2.36,0,0,1,92.67,27l2.42,3.79H93.5l-2-3.42Zm0-1.16h1a2.26,2.26,0,0,0,1.42-.37,1.32,1.32,0,0,0,.44-1.08,1.15,1.15,0,0,0-.48-1A2.59,2.59,0,0,0,91,23.39h-.92Z"/><path class="cls-2" d="M103.58,30.78H98.74V22.21h4.84v1.18h-3.44v2.34h3.22V26.9h-3.22v2.69h3.44Z"/><path class="cls-2" d="M115,30.78h-1.72L109,24H109l0,.38c.06.73.08,1.39.08,2v4.46h-1.27V22.21h1.7l4.2,6.79h0c0-.09,0-.41,0-1s0-1,0-1.32V22.21H115Z"/></svg>