<?xml version="1.0" standalone="no"?>
<!DOCTYPE svg PUBLIC "-//W3C//DTD SVG 20010904//EN"
 "http://www.w3.org/TR/2001/REC-SVG-20010904/DTD/svg10.dtd">
<svg version="1.0" xmlns="http://www.w3.org/2000/svg"
 width="200.000000pt" height="200.000000pt" viewBox="0 0 200.000000 200.000000"
 preserveAspectRatio="xMidYMid meet">
<metadata>
Created by potrace 1.11, written by Peter Selinger 2001-2013
</metadata>
<g transform="translate(0.000000,200.000000) scale(0.100000,-0.100000)"
fill="#000000" stroke="none">
<path d="M394 1976 c-256 -59 -411 -283 -391 -566 16 -223 148 -498 374 -780
83 -104 351 -380 369 -380 33 0 16 26 -84 127 -349 351 -547 661 -606 946 -41
200 6 380 130 497 187 177 483 170 668 -14 62 -62 114 -146 137 -223 11 -41
29 -50 29 -16 0 9 18 53 39 97 197 404 769 370 895 -53 22 -76 21 -225 -4
-327 -65 -275 -286 -604 -626 -934 -118 -115 -280 -260 -289 -260 -3 0 -5 172
-5 383 l1 382 42 20 c140 67 87 275 -70 275 -103 0 -176 -118 -128 -209 19
-37 71 -81 96 -81 18 0 19 -12 19 -425 0 -234 3 -425 8 -425 9 0 159 128 288
246 128 117 306 313 409 449 140 187 214 320 271 492 l35 104 -3 168 -3 167
-37 75 c-179 362 -704 370 -912 15 l-39 -67 -31 57 c-37 68 -123 159 -189 197
-113 66 -269 91 -393 63z m679 -886 c38 -30 52 -80 34 -123 -19 -45 -52 -67
-102 -67 -97 1 -140 107 -71 176 41 41 97 47 139 14z"/>
<path d="M997 1364 c-10 -10 -9 -152 1 -158 23 -14 33 14 30 84 -3 67 -13 92
-31 74z"/>
<path d="M747 1256 c-6 -15 91 -116 111 -116 27 0 9 40 -38 84 -52 49 -65 54
-73 32z"/>
<path d="M1201 1216 c-49 -50 -59 -76 -28 -76 23 0 110 97 104 114 -10 25 -19
20 -76 -38z"/>
<path d="M647 1024 c-4 -4 -7 -13 -7 -21 0 -10 20 -13 81 -13 71 0 80 2 77 18
-3 14 -16 18 -74 20 -38 1 -73 0 -77 -4z"/>
<path d="M1205 1010 c-14 -22 13 -31 86 -28 58 2 74 6 74 18 0 12 -16 16 -77
18 -49 2 -79 -1 -83 -8z"/>
<path d="M790 815 c-42 -43 -52 -57 -42 -67 10 -10 24 0 67 42 30 30 54 59 52
64 -7 22 -25 13 -77 -39z"/>
<path d="M1163 854 c-6 -17 81 -114 103 -114 30 0 18 31 -30 79 -56 55 -64 59
-73 35z"/>
</g>
</svg>
